<?xml version="1.0" standalone="no"?>
<!DOCTYPE svg PUBLIC "-//W3C//DTD SVG 20010904//EN"
 "http://www.w3.org/TR/2001/REC-SVG-20010904/DTD/svg10.dtd">
<svg version="1.0" xmlns="http://www.w3.org/2000/svg"
 width="512.000000pt" height="512.000000pt" viewBox="0 0 512.000000 512.000000"
 preserveAspectRatio="xMidYMid meet">

<g transform="translate(0.000000,512.000000) scale(0.100000,-0.100000)"
fill="#6d7c92" stroke="none">
<path d="M1384 5102 c-77 -27 -128 -73 -166 -150 l-33 -67 -3 -747 -3 -747
-37 -6 c-290 -49 -501 -147 -571 -265 -25 -44 -26 -49 -29 -246 l-3 -200 -75
-37 c-88 -44 -155 -102 -184 -161 -19 -39 -20 -60 -20 -292 0 -219 3 -254 19
-289 25 -57 107 -126 200 -171 75 -36 80 -40 73 -64 -9 -33 -9 -497 0 -530 7
-24 2 -28 -74 -63 -92 -44 -172 -113 -199 -172 -16 -35 -19 -69 -19 -290 0
-286 3 -299 83 -372 115 -106 346 -181 673 -219 133 -15 138 -15 163 4 18 13
27 30 29 55 5 54 -21 74 -105 82 -310 28 -565 102 -658 189 l-35 33 0 111 0
111 86 -41 c96 -45 257 -88 426 -115 163 -26 653 -26 816 0 169 27 330 70 426
115 l86 41 0 -111 0 -111 -35 -33 c-95 -89 -375 -168 -672 -190 -107 -8 -133
-23 -133 -79 0 -45 32 -75 79 -75 54 0 274 27 371 46 116 22 261 69 342 111
129 67 198 151 198 241 l0 41 1113 3 1112 3 56 26 c66 31 120 84 151 148 23
46 23 49 26 527 3 476 3 481 -18 507 -28 35 -72 36 -105 2 l-25 -24 0 -456 c0
-493 0 -495 -55 -545 l-27 -25 -1114 -3 -1114 -2 -1 127 c0 71 -4 137 -8 148
-7 17 3 25 76 61 47 23 94 51 106 62 18 17 39 21 128 24 88 3 113 7 153 28
135 70 158 257 43 355 -47 40 -90 55 -164 55 l-53 0 0 75 0 75 51 0 c152 0
247 96 237 239 -5 75 -39 129 -105 168 -43 25 -58 28 -170 31 -143 5 -202 -6
-255 -49 l-38 -30 0 150 0 151 46 -33 46 -32 158 -3 c142 -3 162 -1 197 16
160 83 165 306 8 390 -16 8 -61 18 -100 21 l-70 6 0 145 0 145 70 5 c76 6 116
23 156 67 42 44 59 87 59 145 0 66 -26 124 -73 165 -54 47 -93 55 -258 51
-140 -3 -147 -4 -188 -31 l-42 -28 -79 25 c-225 71 -375 90 -718 91 l-282 0 2
727 c3 716 3 727 24 754 11 15 33 37 48 48 26 20 42 21 369 24 333 3 342 3
364 24 31 29 30 78 0 106 -23 22 -28 22 -363 22 -297 -1 -345 -3 -390 -18z
m497 -1842 c346 -34 649 -145 649 -237 0 -85 -249 -186 -564 -230 -168 -23
-546 -23 -711 1 -250 36 -479 115 -539 187 -14 17 -26 35 -26 39 0 22 68 84
119 110 112 56 325 109 521 129 122 12 430 13 551 1z m921 -67 c22 -20 23 -70
1 -95 -12 -13 -31 -18 -74 -18 -50 0 -59 3 -64 21 -4 12 -25 42 -47 65 l-41
44 103 0 c82 0 107 -3 122 -17z m-2006 -436 c429 -184 1254 -178 1664 12 30
14 58 27 63 29 11 5 9 -206 -3 -227 -5 -10 -31 -33 -58 -50 -278 -178 -1005
-223 -1482 -91 -102 29 -232 93 -264 131 -24 29 -26 37 -26 136 0 80 3 104 13
100 6 -3 49 -21 93 -40z m-88 -377 c121 -71 339 -131 587 -161 108 -13 479
-18 585 -7 l65 7 -75 -19 c-213 -54 -620 -70 -885 -35 -243 32 -453 100 -538
174 -20 18 -37 41 -37 51 0 28 38 68 93 100 l52 29 43 -49 c24 -28 74 -68 110
-90z m2094 83 c22 -20 23 -70 1 -95 -14 -16 -32 -18 -137 -18 -140 0 -166 10
-122 43 17 12 46 37 65 54 33 30 41 32 105 33 51 0 74 -4 88 -17z m-2218 -362
c103 -36 286 -75 436 -92 133 -15 483 -15 620 0 221 25 458 86 568 146 l42 24
0 -109 c0 -102 -1 -110 -26 -139 -32 -38 -162 -102 -264 -130 -288 -79 -736
-96 -1066 -41 -218 37 -404 107 -460 172 -22 27 -24 37 -24 138 l0 109 43 -24
c23 -13 82 -37 131 -54z m2210 -222 c32 -25 35 -70 6 -99 -17 -17 -33 -20
-100 -20 -79 0 -83 1 -140 42 -51 35 -58 44 -49 60 16 30 46 37 155 37 88 1
105 -2 128 -20z m-404 -155 c84 -39 140 -87 140 -119 0 -57 -145 -138 -331
-184 -166 -42 -352 -62 -579 -62 -213 -1 -350 11 -505 42 -267 54 -472 166
-413 226 14 13 23 14 61 5 236 -60 689 -72 993 -27 188 28 382 87 474 144 42
25 57 23 160 -25z m-1439 -439 c350 -95 851 -104 1226 -24 104 23 238 66 300
98 23 11 45 21 48 21 3 0 5 -49 5 -109 l0 -109 -37 -33 c-76 -67 -227 -121
-448 -160 -169 -30 -552 -38 -750 -15 -192 22 -359 65 -472 121 -127 63 -133
72 -133 206 l0 108 84 -39 c46 -22 125 -51 177 -65z m1849 5 c50 -50 4 -124
-74 -118 l-41 3 -3 68 -3 67 51 0 c37 0 55 -5 70 -20z m-2069 -340 c120 -66
357 -127 592 -150 185 -19 580 -8 737 20 165 30 184 31 188 4 10 -67 -150
-153 -381 -205 -306 -68 -796 -66 -1094 6 -178 43 -313 105 -349 160 -21 33
-10 62 40 100 34 26 180 95 202 95 6 0 35 -13 65 -30z"/>
<path d="M2382 5097 c-29 -31 -29 -77 1 -105 l23 -22 1105 -2 1104 -3 31 -22
c69 -49 64 65 64 -1553 0 -916 4 -1468 10 -1479 5 -10 22 -24 39 -30 24 -10
34 -10 60 3 17 9 33 26 36 39 3 12 4 688 3 1502 l-3 1480 -23 42 c-33 63 -74
106 -134 139 l-53 29 -1121 3 -1120 2 -22 -23z"/>
<path d="M1640 4560 c-19 -19 -20 -33 -20 -423 0 -398 0 -404 21 -423 21 -18
58 -19 1381 -19 l1360 0 24 28 24 28 0 390 0 390 -25 24 -24 25 -1361 0
c-1347 0 -1360 0 -1380 -20z m2638 -422 l-3 -293 -1252 -3 -1253 -2 0 295 0
295 1255 0 1255 0 -2 -292z"/>
<path d="M896 4109 c-52 -41 -23 -129 44 -129 69 0 97 80 44 128 -31 27 -54
28 -88 1z"/>
<path d="M635 3845 c-14 -13 -25 -36 -25 -50 0 -14 11 -37 25 -50 23 -24 28
-25 169 -25 159 0 190 8 204 50 11 32 -7 84 -33 94 -9 3 -84 6 -166 6 -146 0
-151 -1 -174 -25z"/>
<path d="M652 3630 c-22 -9 -42 -46 -42 -76 0 -8 11 -26 25 -39 24 -24 28 -25
180 -25 142 0 157 2 175 20 33 33 30 75 -6 108 -24 21 -33 22 -167 21 -78 0
-152 -4 -165 -9z"/>
<path d="M3210 3349 c-74 -30 -140 -123 -140 -198 0 -85 52 -169 124 -202 61
-28 320 -28 374 0 164 84 162 316 -3 392 -33 15 -64 18 -185 18 -80 0 -156 -5
-170 -10z m312 -156 c22 -20 23 -70 1 -95 -14 -16 -33 -18 -140 -18 -110 0
-125 2 -143 20 -11 11 -20 31 -20 45 0 14 9 34 20 45 18 18 33 20 142 20 99 0
125 -3 140 -17z"/>
<path d="M3912 3339 c-127 -63 -160 -224 -69 -335 52 -63 90 -74 260 -74 126
0 153 3 185 19 164 84 162 316 -3 392 -33 15 -65 19 -185 19 -128 0 -150 -3
-188 -21z m330 -146 c22 -20 23 -70 1 -95 -14 -16 -33 -18 -140 -18 -110 0
-125 2 -143 20 -11 11 -20 31 -20 45 0 14 9 34 20 45 18 18 33 20 142 20 99 0
125 -3 140 -17z"/>
<path d="M3192 2609 c-161 -80 -160 -310 1 -388 38 -18 61 -21 188 -21 159 0
199 11 251 66 100 107 66 283 -67 345 -33 15 -65 19 -185 19 -128 0 -150 -3
-188 -21z m330 -146 c22 -20 23 -70 1 -95 -14 -16 -33 -18 -140 -18 -110 0
-125 2 -143 20 -11 11 -20 31 -20 45 0 14 9 34 20 45 18 18 33 20 142 20 99 0
125 -3 140 -17z"/>
<path d="M3912 2609 c-127 -63 -160 -224 -69 -335 52 -62 91 -74 257 -74 160
0 200 11 252 66 100 107 66 283 -67 345 -33 15 -65 19 -185 19 -128 0 -150 -3
-188 -21z m330 -146 c22 -20 23 -70 1 -95 -14 -16 -33 -18 -140 -18 -110 0
-125 2 -143 20 -11 11 -20 31 -20 45 0 14 9 34 20 45 18 18 33 20 142 20 99 0
125 -3 140 -17z"/>
<path d="M3226 2038 c-56 -15 -131 -91 -146 -148 -27 -102 16 -204 109 -252
50 -26 60 -28 183 -28 157 0 199 11 254 66 51 50 68 98 62 175 -5 75 -45 133
-114 169 -44 23 -61 25 -179 27 -71 1 -148 -3 -169 -9z m288 -159 c32 -25 35
-70 6 -99 -19 -19 -31 -20 -142 -18 -119 3 -121 3 -141 30 -17 23 -19 33 -11
55 14 42 47 53 160 53 87 0 105 -3 128 -21z"/>
<path d="M3946 2038 c-56 -15 -131 -91 -146 -148 -27 -102 16 -204 109 -252
50 -26 60 -28 183 -28 146 0 191 10 242 51 116 96 95 290 -39 359 -45 23 -62
25 -180 27 -71 1 -148 -3 -169 -9z m288 -159 c32 -25 35 -70 6 -99 -18 -18
-33 -20 -137 -20 -106 0 -119 2 -140 22 -30 28 -29 63 2 93 23 24 31 25 133
25 95 0 113 -3 136 -21z"/>
<path d="M3189 1432 c-159 -83 -156 -299 5 -385 37 -20 56 -22 186 -22 136 0
149 2 195 25 69 36 115 111 115 189 0 97 -61 183 -149 210 -21 6 -97 11 -169
11 -123 0 -133 -2 -183 -28z m331 -142 c29 -29 26 -74 -7 -100 -25 -20 -37
-21 -141 -18 -106 3 -115 5 -133 27 -25 31 -24 59 3 88 20 22 29 23 140 23
105 0 120 -2 138 -20z"/>
<path d="M3909 1432 c-93 -48 -136 -150 -109 -252 16 -61 90 -132 153 -148 58
-15 239 -15 292 -1 171 46 223 267 89 378 -51 41 -96 51 -242 51 -123 0 -133
-2 -183 -28z m331 -142 c29 -29 26 -74 -7 -100 -25 -20 -37 -21 -141 -18 -106
3 -115 5 -133 27 -25 31 -24 59 3 88 20 22 29 23 140 23 105 0 120 -2 138 -20z"/>
</g>
</svg>
