<?xml version="1.0" standalone="no"?>
<!DOCTYPE svg PUBLIC "-//W3C//DTD SVG 20010904//EN"
 "http://www.w3.org/TR/2001/REC-SVG-20010904/DTD/svg10.dtd">
<svg version="1.0" xmlns="http://www.w3.org/2000/svg"
 width="512.000000pt" height="512.000000pt" viewBox="0 0 512.000000 512.000000"
 preserveAspectRatio="xMidYMid meet">

<g transform="translate(0.000000,512.000000) scale(0.100000,-0.100000)"
fill="#6d7c92" stroke="none">
<path d="M1045 4980 c-238 -32 -457 -202 -546 -420 -45 -113 -51 -154 -56
-435 -5 -267 -6 -270 -30 -299 -13 -15 -30 -44 -38 -63 -21 -49 -19 -149 4
-198 19 -43 87 -110 127 -125 28 -11 26 -5 48 -122 33 -175 107 -310 248 -451
86 -85 88 -88 88 -135 0 -45 -2 -48 -32 -57 -25 -8 -45 -28 -81 -81 l-48 -71
-245 -73 c-135 -40 -267 -83 -294 -96 -64 -30 -126 -93 -159 -163 l-26 -56 -3
-970 c-2 -726 0 -976 9 -992 23 -44 94 -47 125 -5 11 14 13 200 14 967 0 897
1 952 19 990 34 75 70 96 266 154 169 51 180 53 190 36 33 -58 335 -422 364
-439 42 -24 105 -25 151 -1 19 10 70 45 112 77 l78 59 0 -905 c0 -655 3 -912
11 -930 17 -36 63 -50 100 -31 16 9 30 17 31 18 2 1 5 417 8 924 l5 921 93
-69 c51 -38 110 -73 130 -79 46 -12 106 2 141 33 30 27 337 410 343 427 6 18
339 -82 388 -115 45 -31 68 -70 80 -136 6 -29 18 -61 27 -71 23 -25 78 -23
104 3 50 50 -2 223 -88 299 -61 54 -97 68 -373 150 l-245 73 -45 66 c-27 40
-58 72 -77 81 -31 14 -33 18 -33 68 0 52 0 53 71 119 80 75 141 158 188 250
36 73 81 221 81 269 0 36 2 39 74 87 70 47 110 120 109 201 0 67 -21 127 -58
166 l-24 25 -3 310 -3 310 -38 79 c-26 56 -54 94 -96 135 -32 31 -62 67 -66
81 -23 73 -96 147 -185 189 l-55 26 -410 2 c-225 0 -437 -3 -470 -7z m849
-149 c61 -15 108 -59 136 -131 18 -46 35 -71 65 -93 57 -43 84 -79 106 -142
17 -49 19 -84 19 -362 l0 -307 42 -43 c37 -37 42 -49 42 -84 -2 -51 -33 -86
-92 -101 -59 -15 -82 -41 -82 -95 0 -65 -28 -189 -60 -265 -77 -185 -246 -339
-445 -405 -71 -24 -95 -27 -220 -27 -127 0 -147 2 -220 27 -287 100 -471 336
-500 642 -9 90 -24 113 -78 122 -93 14 -130 111 -68 174 28 27 34 29 111 29
112 0 172 27 206 93 8 15 26 85 40 155 14 70 29 137 34 148 l8 22 79 -19 c181
-43 513 -50 705 -15 116 21 245 63 269 87 42 42 10 119 -49 119 -16 0 -53 -8
-83 -19 -121 -41 -243 -56 -464 -56 -190 1 -222 4 -335 28 -92 20 -133 25
-156 18 -91 -26 -109 -55 -148 -249 l-32 -157 -68 -3 -68 -3 5 233 c3 182 8
245 22 288 66 211 246 365 460 393 62 8 782 6 819 -2z m-699 -2187 c53 -14
105 -19 210 -19 145 0 225 14 323 56 l42 18 0 -69 0 -68 -181 -151 c-158 -132
-183 -149 -198 -138 -10 6 -93 75 -184 151 l-167 139 0 68 0 68 43 -18 c23
-10 74 -27 112 -37z m-110 -313 c103 -85 188 -158 191 -162 4 -6 -158 -136
-202 -162 -8 -4 -65 59 -149 164 l-136 170 48 75 c26 40 51 73 55 71 4 -1 91
-71 193 -156z m889 84 l48 -75 -137 -171 -136 -170 -32 24 c-18 13 -67 50
-110 82 -44 33 -74 62 -69 67 20 20 377 317 382 317 3 1 27 -33 54 -74z"/>
<path d="M1000 3720 c-16 -16 -20 -33 -20 -95 0 -88 17 -115 73 -115 54 0 72
28 72 115 0 58 -4 77 -19 94 -25 27 -79 28 -106 1z"/>
<path d="M1710 3720 c-16 -16 -20 -33 -20 -95 0 -88 17 -115 73 -115 54 0 72
28 72 115 0 58 -4 77 -19 94 -25 27 -79 28 -106 1z"/>
<path d="M1192 3293 c-7 -3 -19 -18 -28 -34 -14 -28 -14 -33 3 -67 37 -76 176
-140 273 -126 64 9 145 51 187 97 29 33 34 44 29 71 -7 36 -39 66 -71 66 -13
0 -42 -15 -64 -34 -50 -42 -101 -60 -141 -51 -17 4 -54 24 -82 46 -49 37 -75
45 -106 32z"/>
<path d="M3730 4980 c-128 -16 -243 -70 -328 -153 -24 -23 -59 -74 -78 -113
-30 -61 -36 -82 -37 -144 l-1 -72 -73 -50 c-138 -92 -271 -244 -345 -393 -96
-192 -121 -330 -116 -660 3 -225 4 -243 25 -281 25 -47 95 -112 130 -120 17
-5 24 -15 28 -43 41 -267 159 -468 359 -611 l76 -54 0 -106 c0 -105 -9 -138
-44 -162 -6 -4 -158 -67 -338 -139 -180 -72 -345 -144 -367 -159 -45 -33 -95
-101 -118 -162 -14 -36 -17 -88 -17 -311 l-1 -269 28 -24 c15 -13 34 -24 42
-24 12 0 15 -60 17 -375 3 -370 3 -375 25 -396 27 -27 75 -29 103 -4 19 18 20
30 20 397 l0 378 105 0 105 0 0 -369 c0 -203 3 -377 6 -386 4 -8 19 -22 34
-30 38 -19 84 -4 99 33 8 19 11 177 9 536 l-3 508 -24 19 c-32 26 -67 24 -96
-6 -22 -21 -25 -33 -25 -90 l0 -65 -145 0 -145 0 0 213 c1 148 4 218 13 233
25 44 54 72 93 92 43 22 464 192 475 192 4 0 37 -42 73 -92 113 -160 276 -310
427 -396 31 -18 68 -32 82 -32 28 0 120 50 207 113 85 62 239 223 304 320 33
48 63 87 68 87 4 0 116 -43 249 -96 265 -106 307 -133 328 -209 6 -23 11 -123
11 -232 l0 -193 -145 0 -145 0 0 49 c0 65 -16 106 -46 120 -35 16 -47 14 -78
-10 l-26 -20 0 -523 c0 -511 0 -523 20 -541 28 -25 76 -23 103 4 22 21 22 26
25 396 l3 375 99 0 100 0 0 -365 c0 -251 4 -372 11 -389 16 -35 63 -50 99 -31
15 8 30 22 34 30 3 9 6 182 6 384 l0 367 35 13 c19 7 40 21 46 32 7 13 9 114
7 292 l-3 272 -28 57 c-16 33 -50 77 -81 105 -48 44 -81 59 -377 177 -178 71
-335 136 -348 145 -37 24 -51 70 -51 174 l0 93 63 41 c35 23 97 77 139 121
160 168 239 364 240 599 0 118 -13 185 -54 267 -74 147 -208 220 -524 286
-309 64 -434 106 -555 186 -102 67 -119 63 -193 -50 -62 -93 -162 -193 -226
-226 -24 -12 -71 -26 -104 -30 -34 -4 -74 -11 -90 -15 l-29 -8 6 124 c8 189
45 322 126 458 259 432 822 570 1247 306 188 -118 327 -299 390 -510 23 -76
27 -113 31 -245 2 -85 6 -170 9 -188 10 -66 76 -94 122 -52 21 20 22 29 22
179 0 278 -52 454 -193 659 -58 85 -188 211 -274 267 l-61 39 -4 77 c-6 106
-46 186 -132 267 -119 111 -288 164 -456 142z m195 -162 c108 -27 203 -105
230 -189 10 -28 15 -53 12 -56 -3 -3 -27 2 -54 10 -112 35 -161 42 -313 42
-124 -1 -172 -5 -240 -22 -47 -12 -93 -25 -102 -28 -48 -19 0 103 64 160 98
89 255 121 403 83z m-229 -1272 c54 -19 176 -51 269 -71 315 -67 390 -94 467
-163 52 -47 77 -102 87 -198 39 -342 -190 -670 -533 -764 -96 -27 -249 -29
-351 -5 -92 21 -215 82 -292 146 -151 123 -263 350 -263 532 0 58 -27 92 -77
100 -51 9 -79 30 -93 72 -10 30 -9 41 7 73 20 40 43 51 157 71 117 21 234 101
334 227 l64 82 63 -34 c34 -19 107 -50 161 -68z m-71 -1351 c119 -28 343 -17
438 20 15 6 17 0 17 -62 0 -103 23 -169 79 -224 25 -25 53 -48 60 -51 20 -6
-11 -56 -104 -168 -70 -83 -159 -162 -259 -230 l-50 -33 -40 23 c-108 61 -264
211 -353 338 l-42 59 44 31 c24 17 56 52 71 78 25 42 29 61 32 146 4 86 7 98
21 94 9 -3 47 -13 86 -21z"/>
<path d="M3412 3293 c-37 -15 -56 -131 -31 -187 23 -51 103 -55 128 -7 6 11
11 51 11 90 0 63 -2 71 -26 90 -26 20 -55 25 -82 14z"/>
<path d="M4122 3293 c-37 -15 -56 -131 -31 -187 23 -51 103 -55 128 -7 6 11
11 51 11 90 0 63 -2 71 -26 90 -26 20 -55 25 -82 14z"/>
<path d="M3593 2848 c-26 -13 -47 -59 -38 -87 10 -33 101 -108 152 -125 101
-35 220 -7 299 68 36 35 44 49 44 78 0 74 -72 95 -135 39 -67 -58 -130 -67
-186 -26 -95 69 -99 71 -136 53z"/>
<path d="M386 2039 c-17 -14 -26 -30 -26 -50 0 -17 35 -98 83 -192 l82 -162 5
-727 5 -727 22 -22 c30 -30 80 -30 105 0 17 22 18 59 18 757 l0 734 -95 189
c-112 224 -137 249 -199 200z"/>
<path d="M2342 2044 c-14 -9 -64 -97 -118 -206 l-94 -190 0 -731 c1 -585 3
-735 14 -749 30 -39 92 -40 122 0 11 14 13 158 14 729 l0 712 92 185 c85 173
90 186 79 214 -12 28 -46 52 -74 52 -7 0 -23 -7 -35 -16z"/>
<path d="M1120 1433 c-51 -19 -68 -85 -30 -123 51 -51 130 -5 120 70 -4 33
-58 65 -90 53z"/>
<path d="M1090 1060 c-58 -58 17 -160 86 -115 32 21 44 53 32 88 -18 49 -81
64 -118 27z"/>
<path d="M1120 723 c-51 -19 -68 -85 -30 -123 51 -51 130 -5 120 70 -4 33 -58
65 -90 53z"/>
</g>
</svg>
