<?xml version="1.0" standalone="no"?>
<!DOCTYPE svg PUBLIC "-//W3C//DTD SVG 20010904//EN"
 "http://www.w3.org/TR/2001/REC-SVG-20010904/DTD/svg10.dtd">
<svg version="1.0" xmlns="http://www.w3.org/2000/svg"
 width="512.000000pt" height="512.000000pt" viewBox="0 0 512.000000 512.000000"
 preserveAspectRatio="xMidYMid meet">

<g transform="translate(0.000000,512.000000) scale(0.100000,-0.100000)"
fill="#6d7c92" stroke="none">
<path d="M253 5106 c-102 -32 -176 -97 -222 -196 l-26 -55 0 -1605 0 -1605 27
-57 c34 -73 103 -142 176 -176 l57 -27 548 -3 547 -3 29 -64 c56 -124 175
-213 311 -235 36 -5 205 -10 377 -10 l312 0 3 -462 c3 -447 4 -464 24 -503 11
-22 40 -53 63 -70 l43 -30 1146 -3 1147 -2 45 22 c26 14 57 41 75 66 l30 44 3
496 c3 517 -1 586 -39 690 -11 32 -23 64 -25 72 -3 10 14 25 47 45 60 35 109
91 141 161 l23 49 0 1605 0 1605 -33 67 c-38 77 -92 130 -171 167 l-56 26
-2280 2 c-1866 1 -2288 -1 -2322 -11z m4609 -178 c22 -13 51 -41 64 -64 l24
-41 0 -1572 c0 -1141 -3 -1578 -11 -1594 -20 -39 -72 -86 -106 -98 -32 -10
-36 -9 -88 39 -73 67 -153 115 -250 148 -76 27 -91 28 -287 32 l-208 4 1 26
c0 21 14 37 62 73 119 88 219 232 267 384 30 95 38 273 17 372 -34 158 -97
273 -218 394 -74 75 -99 94 -190 138 -139 68 -226 85 -384 78 -210 -10 -369
-81 -511 -229 -261 -271 -289 -675 -70 -982 47 -66 136 -153 187 -183 21 -13
29 -25 29 -45 l0 -28 -608 0 c-568 0 -610 1 -624 18 -16 19 -74 151 -233 532
-58 140 -113 265 -120 277 -13 20 4 59 236 540 138 285 255 528 260 540 29 76
-80 145 -135 85 -8 -10 -118 -232 -245 -495 -127 -263 -238 -491 -246 -507
l-15 -29 -43 15 c-63 23 -170 20 -239 -6 -76 -28 -155 -101 -193 -177 -26 -51
-29 -69 -30 -148 0 -90 0 -91 72 -262 l73 -172 -55 -112 c-30 -62 -55 -123
-55 -136 0 -34 42 -73 79 -73 47 0 60 9 87 62 27 53 34 53 52 3 5 -16 26 -65
46 -107 l35 -78 -489 0 c-321 0 -498 4 -517 11 -34 13 -80 55 -99 91 -12 23
-14 265 -14 1600 l0 1573 24 39 c13 21 41 49 62 62 l39 24 2264 0 2263 0 40
-22z m-1139 -1854 c212 -48 390 -214 451 -423 9 -30 16 -58 16 -62 0 -12 -72
11 -133 43 -74 40 -121 93 -163 183 -25 54 -40 75 -62 84 -48 20 -79 5 -124
-63 -109 -160 -258 -247 -474 -276 -92 -13 -217 -11 -231 3 -10 11 22 127 53
191 120 245 400 380 667 320z m94 -460 c64 -81 214 -172 321 -195 l53 -11 -6
-41 c-25 -148 -129 -298 -268 -388 -34 -22 -67 -50 -74 -62 -7 -13 -12 -61
-13 -114 0 -90 0 -91 -32 -119 -119 -100 -287 -100 -405 0 -33 27 -33 29 -33
114 0 50 -6 98 -13 112 -7 14 -39 42 -72 64 -123 81 -219 209 -259 345 -9 30
-16 57 -16 60 0 3 60 6 133 7 145 1 235 17 343 60 98 39 176 87 242 149 31 30
60 54 64 55 4 0 20 -16 35 -36z m-2438 -18 c8 -6 -158 -368 -179 -389 -4 -5
-24 31 -45 80 -32 76 -36 96 -33 149 5 74 38 126 102 155 39 19 128 21 155 5z
m212 -373 l87 -207 -171 -78 c-94 -43 -171 -77 -173 -75 -1 1 -13 30 -28 63
l-25 62 107 221 c58 122 109 221 112 221 3 0 44 -93 91 -207z m195 -452 c34
-74 49 -94 85 -118 l43 -28 655 -3 655 -2 51 -49 c183 -173 458 -172 641 1
l53 50 203 -4 c220 -5 275 -16 377 -76 66 -39 151 -128 188 -198 62 -117 63
-127 63 -676 l0 -498 -210 0 -210 0 0 491 c0 502 -1 517 -39 546 -17 13 -60
17 -86 7 -43 -17 -45 -36 -45 -554 l0 -490 -822 2 -823 3 -5 508 -5 509 -28
24 -28 24 -388 0 c-435 0 -450 2 -518 69 -29 28 -56 78 -116 216 -43 99 -74
181 -70 183 5 1 80 36 168 76 88 41 162 75 165 75 3 0 24 -39 46 -88z"/>
<path d="M1019 4381 c-17 -18 -29 -40 -29 -56 0 -16 12 -38 29 -56 l29 -29
562 0 c592 0 607 1 624 45 17 46 4 91 -35 110 -24 13 -116 15 -589 15 l-562 0
-29 -29z"/>
<path d="M2925 4398 c-41 -22 -56 -67 -39 -113 17 -44 32 -45 624 -45 l562 0
29 29 c17 18 29 40 29 56 0 16 -12 38 -29 56 l-29 29 -564 0 c-388 -1 -569 -4
-583 -12z"/>
<path d="M1053 3793 c-29 -6 -63 -49 -63 -80 0 -14 13 -37 29 -54 l29 -29 297
0 297 0 29 29 c36 36 37 70 5 108 l-24 28 -289 1 c-158 1 -298 0 -310 -3z"/>
<path d="M2944 3790 c-26 -10 -54 -48 -54 -72 0 -30 21 -65 47 -77 16 -7 123
-11 314 -11 l291 0 29 29 c36 36 37 70 5 108 l-24 28 -294 2 c-161 1 -303 -2
-314 -7z"/>
</g>
</svg>
